<?xml version="1.0" encoding="utf-8"?>
<!-- Ruled paper background for worksheets and note pages. -->
<svg xmlns="http://www.w3.org/2000/svg" viewBox="0 0 600 800" stroke="currentColor" stroke-width="1" fill="none">
  <line x1="80" y1="0" x2="80" y2="800" stroke-opacity=".35" stroke-width="2"/>
  <g stroke-opacity=".25">
    <line x1="0" y1="60" x2="600" y2="60"/>
    <line x1="0" y1="100" x2="600" y2="100"/>
    <line x1="0" y1="140" x2="600" y2="140"/>
    <line x1="0" y1="180" x2="600" y2="180"/>
    <line x1="0" y1="220" x2="600" y2="220"/>
    <line x1="0" y1="260" x2="600" y2="260"/>
    <line x1="0" y1="300" x2="600" y2="300"/>
    <line x1="0" y1="340" x2="600" y2="340"/>
    <line x1="0" y1="380" x2="600" y2="380"/>
    <line x1="0" y1="420" x2="600" y2="420"/>
    <line x1="0" y1="460" x2="600" y2="460"/>
    <line x1="0" y1="500" x2="600" y2="500"/>
    <line x1="0" y1="540" x2="600" y2="540"/>
    <line x1="0" y1="580" x2="600" y2="580"/>
    <line x1="0" y1="620" x2="600" y2="620"/>
    <line x1="0" y1="660" x2="600" y2="660"/>
    <line x1="0" y1="700" x2="600" y2="700"/>
    <line x1="0" y1="740" x2="600" y2="740"/>
  </g>
</svg>