<?xml version="1.0" encoding="utf-8"?>
<!-- Quote marks icon for Curls & Contemplation. Colour inherits from CSS currentColor. -->
<svg xmlns="http://www.w3.org/2000/svg" viewBox="0 0 48 24" fill="currentColor">
  <path d="M14.2 3.5c-4.5 0-8.2 3.7-8.2 8.2 0 3.9 2.6 6.9 6.2 7.7-.5-1.7-.5-3.3.2-4.8 1.1-2.3 3.5-3.8 6.2-3.8 1.7 0 3.2-.3 4.4-1.2 1.1-.8 1.8-2 1.8-3.6 0-1.7-.7-3-1.9-3.9-1.2-.9-2.9-1.4-4.7-1.4z"/>
  <path d="M33.8 3.5c-4.5 0-8.2 3.7-8.2 8.2 0 3.9 2.6 6.9 6.2 7.7-.5-1.7-.5-3.3.2-4.8 1.1-2.3 3.5-3.8 6.2-3.8 1.7 0 3.2-.3 4.4-1.2 1.1-.8 1.8-2 1.8-3.6 0-1.7-.7-3-1.9-3.9-1.2-.9-2.9-1.4-4.7-1.4z"/>
</svg>